<svg width="138" height="138" viewBox="0 0 138 138" fill="none" xmlns="http://www.w3.org/2000/svg">
    <rect width="138" height="138" rx="4" fill="#161823" fill-opacity="0.03"/>
    <rect x="0.25" y="0.25" width="137.5" height="137.5" rx="3.75" stroke="#161823" stroke-opacity="0.12" stroke-width="0.5"/>
    <path fill-rule="evenodd" clip-rule="evenodd" d="M85.3811 36.9643C85.8959 37.0199 86.2681 37.4822 86.2126 37.997L84.266 56.0332H98.25C98.7678 56.0332 99.1875 56.4529 99.1875 56.9707V59.4082C99.1875 59.9259 98.7678 60.3457 98.25 60.3457H83.8005L82.1715 75.4394H98.25C98.7678 75.4394 99.1875 75.8592 99.1875 76.3769V78.8144C99.1875 79.3322 98.7678 79.7519 98.25 79.7519H81.706L79.2411 102.591C79.1855 103.105 78.7232 103.478 78.2084 103.422L75.785 103.161C75.2702 103.105 74.8979 102.643 74.9535 102.128L77.3685 79.7519H62.4535L59.9886 102.591C59.933 103.105 59.4706 103.478 58.9559 103.422L56.5324 103.161C56.0177 103.105 55.6454 102.643 55.7009 102.128L58.116 79.7519H41.9063C41.3885 79.7519 40.9688 79.3322 40.9688 78.8144V76.3769C40.9688 75.8592 41.3885 75.4394 41.9062 75.4394H58.5814L60.2104 60.3457H41.9063C41.3885 60.3457 40.9688 59.9259 40.9688 59.4082V56.9707C40.9688 56.4529 41.3885 56.0332 41.9062 56.0332H60.6759L62.6724 37.5342C62.728 37.0195 63.1903 36.6472 63.7051 36.7028L66.1286 36.9643C66.6433 37.0199 67.0156 37.4822 66.96 37.997L65.0134 56.0332H79.9284L81.925 37.5342C81.9805 37.0195 82.4429 36.6472 82.9577 36.7028L85.3811 36.9643ZM64.548 60.3457L62.9189 75.4394H77.8339L79.463 60.3457H64.548Z" fill="#161823"/>
</svg>
