<svg width="18" height="18" viewBox="0 0 18 18" fill="none" xmlns="http://www.w3.org/2000/svg">
<path d="M17 8.39C17.1858 8.25156 17.3237 8.05844 17.3942 7.8377C17.4647 7.61697 17.4644 7.3797 17.3933 7.15915C17.3222 6.93861 17.1838 6.74586 16.9976 6.60792C16.8114 6.46998 16.5867 6.39378 16.355 6.39L11.855 6.22C11.8329 6.21847 11.8116 6.21058 11.7939 6.19727C11.7762 6.18396 11.7626 6.16581 11.755 6.145L10.2 1.945C10.1219 1.73132 9.97995 1.54681 9.79348 1.41645C9.60702 1.28608 9.385 1.21617 9.15748 1.21617C8.92997 1.21617 8.70794 1.28608 8.52148 1.41645C8.33501 1.54681 8.19311 1.73132 8.11498 1.945L6.56498 6.16C6.55732 6.18081 6.5438 6.19896 6.52606 6.21227C6.50832 6.22558 6.48711 6.23347 6.46498 6.235L1.96498 6.405C1.73328 6.40878 1.50858 6.48498 1.32238 6.62292C1.13618 6.76086 0.997812 6.95361 0.926686 7.17415C0.855561 7.3947 0.855242 7.63197 0.925774 7.8527C0.996305 8.07344 1.13415 8.26656 1.31998 8.405L4.84998 11.18C4.86765 11.1939 4.88085 11.2127 4.88796 11.234C4.89507 11.2553 4.89577 11.2783 4.88998 11.3L3.67498 15.605C3.61202 15.8242 3.61812 16.0575 3.69245 16.2731C3.76678 16.4888 3.90573 16.6763 4.09041 16.8101C4.27508 16.944 4.4965 17.0177 4.72456 17.0213C4.95261 17.0248 5.17623 16.958 5.36498 16.83L9.09498 14.33C9.11336 14.3173 9.13515 14.3105 9.15748 14.3105C9.17981 14.3105 9.20161 14.3173 9.21998 14.33L12.95 16.83C13.1362 16.9624 13.359 17.0336 13.5875 17.0336C13.816 17.0336 14.0388 16.9624 14.225 16.83C14.4097 16.6974 14.5488 16.5108 14.6231 16.2959C14.6974 16.081 14.7033 15.8484 14.64 15.63L13.415 11.31C13.4085 11.2883 13.4088 11.2651 13.416 11.2437C13.4232 11.2222 13.4368 11.2035 13.455 11.19L17 8.39Z" fill="#C4C4C4"/>
</svg>
