<svg width="16" height="16" viewBox="0 0 16 16" fill="none" xmlns="http://www.w3.org/2000/svg">
<path fill-rule="evenodd" clip-rule="evenodd" d="M8 1C6.14348 1 4.36301 1.7375 3.05025 3.05025C1.7375 4.36301 1 6.14348 1 8C1 9.85652 1.7375 11.637 3.05025 12.9497C4.36301 14.2625 6.14348 15 8 15C9.85652 15 11.637 14.2625 12.9497 12.9497C14.2625 11.637 15 9.85652 15 8C15 6.14348 14.2625 4.36301 12.9497 3.05025C11.637 1.7375 9.85652 1 8 1V1ZM8 0C5.87827 0 3.84344 0.842854 2.34315 2.34315C0.842854 3.84344 0 5.87827 0 8C0 10.1217 0.842854 12.1566 2.34315 13.6569C3.84344 15.1571 5.87827 16 8 16C10.1217 16 12.1566 15.1571 13.6569 13.6569C15.1571 12.1566 16 10.1217 16 8C16 5.87827 15.1571 3.84344 13.6569 2.34315C12.1566 0.842854 10.1217 0 8 0V0Z" fill="black"/>
<path fill-rule="evenodd" clip-rule="evenodd" d="M7.64602 4.646C7.59946 4.69245 7.56252 4.74762 7.53731 4.80837C7.5121 4.86911 7.49913 4.93423 7.49913 5C7.49913 5.06577 7.5121 5.13089 7.53731 5.19163C7.56252 5.25238 7.59946 5.30756 7.64602 5.354L10.293 8L7.64602 10.646C7.59953 10.6925 7.56266 10.7477 7.5375 10.8084C7.51234 10.8692 7.49939 10.9343 7.49939 11C7.49939 11.0657 7.51234 11.1308 7.5375 11.1916C7.56266 11.2523 7.59953 11.3075 7.64602 11.354C7.69251 11.4005 7.7477 11.4374 7.80844 11.4625C7.86918 11.4877 7.93428 11.5006 8.00002 11.5006C8.06577 11.5006 8.13087 11.4877 8.19161 11.4625C8.25234 11.4374 8.30753 11.4005 8.35402 11.354L11.354 8.354C11.4006 8.30756 11.4375 8.25238 11.4627 8.19164C11.4879 8.13089 11.5009 8.06577 11.5009 8C11.5009 7.93423 11.4879 7.86911 11.4627 7.80837C11.4375 7.74762 11.4006 7.69245 11.354 7.646L8.35402 4.646C8.30758 4.59944 8.2524 4.5625 8.19166 4.53729C8.13091 4.51208 8.06579 4.49911 8.00002 4.49911C7.93425 4.49911 7.86913 4.51208 7.80839 4.53729C7.74764 4.5625 7.69247 4.59944 7.64602 4.646Z" fill="black"/>
<path fill-rule="evenodd" clip-rule="evenodd" d="M4.5 8C4.5 8.13261 4.55268 8.25979 4.64645 8.35355C4.74021 8.44732 4.86739 8.5 5 8.5H10C10.1326 8.5 10.2598 8.44732 10.3536 8.35355C10.4473 8.25979 10.5 8.13261 10.5 8C10.5 7.86739 10.4473 7.74021 10.3536 7.64645C10.2598 7.55268 10.1326 7.5 10 7.5L5 7.5C4.86739 7.5 4.74021 7.55268 4.64645 7.64645C4.55268 7.74021 4.5 7.86739 4.5 8Z" fill="black"/>
</svg>
