<svg fill="none" height="141" viewBox="0 0 140 141" width="140" xmlns="http://www.w3.org/2000/svg" xmlns:xlink="http://www.w3.org/1999/xlink"><clipPath id="a"><path d="m0 .834869h140v140h-140z"/></clipPath><g clip-path="url(#a)"><rect fill="#f7f7f7" height="139" rx="7.5" stroke="#000" width="139" x=".5" y="1.33487"/><g fill="#000"><path d="m86.5 88.3348c3.0376 0 5.5-2.4624 5.5-5.5 0-3.0375-2.4624-5.5-5.5-5.5s-5.5 2.4625-5.5 5.5c0 3.0376 2.4624 5.5 5.5 5.5z"/><path d="m107.887 81.4021c-1.699-4.3288-4.632-8.0639-8.4332-10.7422-3.8016-2.6783-8.3056-4.1821-12.9538-4.3251-4.6482.143-9.1522 1.6468-12.9538 4.3251-3.8017 2.6783-6.7338 6.4134-8.433 10.7422l-.6132 1.4327.6132 1.4328c1.6992 4.3288 4.6313 8.0638 8.433 10.7421 3.8016 2.6784 8.3056 4.1822 12.9538 4.3251 4.6482-.1429 9.1522-1.6467 12.9538-4.3251 3.8012-2.6783 6.7342-6.4133 8.4332-10.7421l.613-1.4328zm-21.387 12.4327c-2.1756 0-4.3023-.6451-6.1113-1.8538-1.8089-1.2087-3.2188-2.9267-4.0514-4.9366-.8325-2.01-1.0504-4.2218-.6259-6.3556.4244-2.1337 1.472-4.0938 3.0104-5.6321 1.5384-1.5384 3.4984-2.5861 5.6322-3.0105s4.3455-.2066 6.3555.626c2.01.8325 3.728 2.2424 4.9367 4.0514 1.2087 1.8089 1.8538 3.9356 1.8538 6.1112-.0036 2.9163-1.1637 5.7121-3.2258 7.7742-2.0622 2.0621-4.8579 3.2222-7.7742 3.2258z"/><path d="m59 93.8349h-13.75v-57.75h8.25v8.25h33v-8.25h8.25v24.75h5.5v-24.75c0-1.4587-.5795-2.8577-1.6109-3.8891-1.0315-1.0315-2.4304-1.6109-3.8891-1.6109h-8.25v-2.75c0-1.4587-.5795-2.8577-1.6109-3.8891-1.0315-1.0315-2.4304-1.6109-3.8891-1.6109h-22c-1.4587 0-2.8576.5794-3.8891 1.6109-1.0314 1.0314-1.6109 2.4304-1.6109 3.8891v2.75h-8.25c-1.4587 0-2.8576.5794-3.8891 1.6109-1.0314 1.0314-1.6109 2.4304-1.6109 3.8891v57.75c0 1.4587.5795 2.8576 1.6109 3.8891 1.0315 1.0314 2.4304 1.6109 3.8891 1.6109h13.75zm0-66h22v11h-22z"/></g></g></svg>