<svg width="140" height="141" viewBox="0 0 140 141" fill="none" xmlns="http://www.w3.org/2000/svg">
<g clip-path="url(#clip0)">
<rect x="0.5" y="1.33487" width="139" height="139" rx="7.5" fill="#F7F7F7" stroke="black"/>
<path d="M36.1109 126.889H34.1114V124.616H29.0777V126.883H27.0147L26.856 122.903H27.5098C27.8526 122.674 28.1277 122.283 28.335 121.728C28.5466 121.17 28.6968 120.37 28.7857 119.329L29.0713 115.374H35.3619V122.903H36.3458L36.1109 126.889ZM30.0298 122.903H33.1402V117.094H31.1724L31.001 119.405C30.8741 120.903 30.5503 122.069 30.0298 122.903ZM45.3081 120.186C45.3081 121.087 45.141 121.885 44.8067 122.579C44.4724 123.273 43.9963 123.808 43.3784 124.185C42.7648 124.557 42.0645 124.743 41.2774 124.743C40.4903 124.743 39.792 124.564 39.1826 124.204C38.5733 123.84 38.0972 123.322 37.7544 122.649C37.4159 121.976 37.2381 121.204 37.2212 120.332V119.811C37.2212 118.906 37.3863 118.108 37.7163 117.418C38.0506 116.724 38.5267 116.189 39.1446 115.812C39.7666 115.436 40.4733 115.247 41.2647 115.247C42.0476 115.247 42.7458 115.433 43.3594 115.806C43.973 116.178 44.4491 116.709 44.7876 117.399C45.1304 118.085 45.3039 118.872 45.3081 119.76V120.186ZM43.042 119.799C43.042 118.88 42.8876 118.184 42.5786 117.71C42.274 117.232 41.836 116.993 41.2647 116.993C40.1475 116.993 39.5572 117.831 39.4937 119.507L39.4873 120.186C39.4873 121.091 39.6376 121.788 39.938 122.274C40.2385 122.761 40.6849 123.004 41.2774 123.004C41.8402 123.004 42.274 122.765 42.5786 122.287C42.8833 121.809 43.0378 121.121 43.042 120.224V119.799ZM50.2461 120.96H49.1924V124.616H46.9644V115.374H49.1924V118.948H50.0493L51.8267 115.374H54.5244L51.9854 119.64L54.8418 124.616H52.2075L50.2461 120.96ZM59.5005 119.386V119.392L61.0303 115.374H63.3789L60.2685 122.706C59.9342 123.446 59.5576 123.969 59.1387 124.274C58.724 124.574 58.2373 124.733 57.6787 124.75H57.228L56.8852 124.737L56.8472 123.01C56.8979 123.027 57.0461 123.036 57.2915 123.036C57.63 123.036 57.8839 122.979 58.0532 122.864C58.2267 122.746 58.3664 122.52 58.4722 122.185L58.5801 121.881L55.2412 115.374H57.6089L59.5005 119.386ZM67.5869 115.374L69.6499 121.804L71.7065 115.374H74.6391V124.616H72.4048V122.458L72.6206 118.04L70.3862 124.616H68.9135L66.6728 118.034L66.8886 122.458V124.616H64.6606V115.374H67.5869ZM82.3129 120.7H78.809V122.903H82.9477V124.616H76.581V115.374H82.9604V117.094H78.809V119.043H82.3129V120.7ZM92.1005 124.616H89.8852V120.757H86.6034V124.616H84.3754V115.374H86.6034V119.043H89.8852V115.374H92.1005V124.616ZM101.101 117.094H98.3271V124.616H96.099V117.094H93.3759V115.374H101.101V117.094ZM104.795 118.554H105.944C106.676 118.554 107.323 118.679 107.886 118.929C108.449 119.179 108.881 119.532 109.181 119.989C109.486 120.442 109.638 120.962 109.638 121.551C109.638 122.46 109.3 123.199 108.622 123.766C107.95 124.333 107.044 124.616 105.906 124.616H102.56V115.374H104.795V118.554ZM112.533 124.616H110.311V115.374H112.533V124.616ZM104.795 120.268V122.903H105.937C106.39 122.903 106.748 122.776 107.01 122.522C107.277 122.268 107.41 121.94 107.41 121.538C107.41 121.157 107.279 120.85 107.017 120.617C106.754 120.385 106.39 120.268 105.925 120.268H104.795Z" fill="black"/>
<path d="M86.5 88.3349C89.5376 88.3349 92 85.8724 92 82.8349C92 79.7973 89.5376 77.3349 86.5 77.3349C83.4624 77.3349 81 79.7973 81 82.8349C81 85.8724 83.4624 88.3349 86.5 88.3349Z" fill="black"/>
<path d="M107.887 81.4021C106.188 77.0733 103.255 73.3383 99.4538 70.66C95.6522 67.9817 91.1482 66.4778 86.5 66.3349C81.8518 66.4778 77.3478 67.9817 73.5462 70.66C69.7445 73.3383 66.8124 77.0733 65.1132 81.4021L64.5 82.8349L65.1132 84.2676C66.8124 88.5964 69.7445 92.3315 73.5462 95.0098C77.3478 97.6881 81.8518 99.1919 86.5 99.3349C91.1482 99.1919 95.6522 97.6881 99.4538 95.0098C103.255 92.3315 106.188 88.5964 107.887 84.2676L108.5 82.8349L107.887 81.4021ZM86.5 93.8349C84.3244 93.8349 82.1977 93.1897 80.3887 91.981C78.5798 90.7723 77.1699 89.0544 76.3373 87.0444C75.5048 85.0344 75.2869 82.8227 75.7114 80.6889C76.1358 78.5551 77.1834 76.5951 78.7218 75.0567C80.2602 73.5183 82.2202 72.4707 84.354 72.0462C86.4878 71.6218 88.6995 71.8396 90.7095 72.6722C92.7195 73.5048 94.4375 74.9147 95.6462 76.7236C96.8549 78.5325 97.5 80.6593 97.5 82.8349C97.4964 85.7511 96.3363 88.5469 94.2742 90.609C92.212 92.6711 89.4163 93.8312 86.5 93.8349V93.8349Z" fill="black"/>
<path d="M59 93.8349H45.25V36.0849H53.5V44.3349H86.5V36.0849H94.75V60.8349H100.25V36.0849C100.25 34.6262 99.6705 33.2272 98.6391 32.1958C97.6076 31.1643 96.2087 30.5849 94.75 30.5849H86.5V27.8349C86.5 26.3762 85.9205 24.9772 84.8891 23.9458C83.8576 22.9143 82.4587 22.3349 81 22.3349H59C57.5413 22.3349 56.1424 22.9143 55.1109 23.9458C54.0795 24.9772 53.5 26.3762 53.5 27.8349V30.5849H45.25C43.7913 30.5849 42.3924 31.1643 41.3609 32.1958C40.3295 33.2272 39.75 34.6262 39.75 36.0849V93.8349C39.75 95.2936 40.3295 96.6925 41.3609 97.724C42.3924 98.7554 43.7913 99.3349 45.25 99.3349H59V93.8349ZM59 27.8349H81V38.8349H59V27.8349Z" fill="black"/>
</g>
<defs>
<clipPath id="clip0">
<rect width="140" height="140" fill="white" transform="translate(0 0.834869)"/>
</clipPath>
</defs>
</svg>
