<svg width="29" height="20" viewBox="0 0 29 20" fill="none" xmlns="http://www.w3.org/2000/svg">
<path d="M26.1293 0H2.1293C1.59887 0 1.09016 0.210714 0.715089 0.585786C0.340017 0.960859 0.129303 1.46957 0.129303 2V18C0.129303 18.5304 0.340017 19.0391 0.715089 19.4142C1.09016 19.7893 1.59887 20 2.1293 20H26.1293C26.6597 20 27.1684 19.7893 27.5435 19.4142C27.9186 19.0391 28.1293 18.5304 28.1293 18V2C28.1293 1.46957 27.9186 0.960859 27.5435 0.585786C27.1684 0.210714 26.6597 0 26.1293 0ZM23.9293 2L14.1293 8.78L4.3293 2H23.9293ZM2.1293 18V2.91L13.5593 10.82C13.7267 10.9361 13.9256 10.9984 14.1293 10.9984C14.333 10.9984 14.5319 10.9361 14.6993 10.82L26.1293 2.91V18H2.1293Z" fill="black"/>
</svg>
