<svg width="28" height="29" viewBox="0 0 28 29" fill="none" xmlns="http://www.w3.org/2000/svg">
<g clip-path="url(#clip0)">
<path fill-rule="evenodd" clip-rule="evenodd" d="M20.7211 14.4959L14.0908 24.3495L7.46046 14.4959C5.48809 11.5647 5.65074 7.68192 7.86125 4.9279C11.0655 0.935746 17.116 0.935745 20.3203 4.9279C22.5308 7.68192 22.6934 11.5647 20.7211 14.4959ZM22.3728 15.6199L15.2948 26.1388L14.0908 27.9282L12.8867 26.1388L5.80867 15.6199C3.34494 11.9584 3.54811 7.10834 6.30931 3.66823C10.3119 -1.31848 17.8696 -1.31848 21.8722 3.66823C24.6334 7.10834 24.8366 11.9584 22.3728 15.6199ZM17.0398 9.95548C17.0398 11.6101 15.709 12.9323 14.0908 12.9323C12.4726 12.9323 11.1417 11.6101 11.1417 9.95548C11.1417 8.30085 12.4726 6.97864 14.0908 6.97864C15.709 6.97864 17.0398 8.30085 17.0398 9.95548ZM19.0398 9.95548C19.0398 12.7041 16.8241 14.9323 14.0908 14.9323C11.3575 14.9323 9.14169 12.7041 9.14169 9.95548C9.14169 7.20685 11.3575 4.97864 14.0908 4.97864C16.8241 4.97864 19.0398 7.20685 19.0398 9.95548Z" fill="black"/>
</g>
<defs>
<clipPath id="clip0">
<rect width="28" height="28" fill="white" transform="translate(0 0.00214195)"/>
</clipPath>
</defs>
</svg>
