<svg width="29" height="28" viewBox="0 0 29 28" fill="none" xmlns="http://www.w3.org/2000/svg">
<path d="M8.27638 -1.90735e-06C3.75692 -1.90735e-06 0.0431061 3.70872 0.0431061 8.23327V19.7667C0.0431061 24.2862 3.75183 28 8.27638 28H19.8098C24.3293 28 28.0431 24.2913 28.0431 19.7667V8.23454C28.0431 3.71382 24.3344 -1.90735e-06 19.8098 -1.90735e-06H8.27638ZM8.27638 2.54545H19.8098C20.5571 2.54445 21.2971 2.69088 21.9877 2.97636C22.6782 3.26185 23.3056 3.68077 23.834 4.20913C24.3623 4.7375 24.7813 5.36492 25.0667 6.05545C25.3522 6.74598 25.4987 7.48605 25.4977 8.23327V19.7667C25.4987 20.5139 25.3522 21.254 25.0667 21.9445C24.7813 22.6351 24.3623 23.2625 23.834 23.7909C23.3056 24.3192 22.6782 24.7381 21.9877 25.0236C21.2971 25.3091 20.5571 25.4555 19.8098 25.4545H8.27765C7.53033 25.4557 6.79012 25.3094 6.09944 25.024C5.40876 24.7386 4.78119 24.3197 4.25269 23.7913C3.72419 23.2629 3.30516 22.6355 3.01959 21.9448C2.73403 21.2542 2.58755 20.5141 2.58856 19.7667V8.23454C2.58739 7.48722 2.7337 6.74701 3.01911 6.05633C3.30451 5.36565 3.72341 4.73808 4.25179 4.20958C4.78017 3.68109 5.40765 3.26205 6.09826 2.97649C6.78888 2.69092 7.52905 2.54445 8.27638 2.54545ZM21.5598 5.33018C21.4082 5.32951 21.258 5.35887 21.1178 5.41658C20.9776 5.47429 20.8502 5.5592 20.743 5.66641C20.6358 5.77362 20.5509 5.901 20.4931 6.04121C20.4354 6.18141 20.4061 6.33166 20.4067 6.48327C20.4067 7.12473 20.9184 7.63636 21.5598 7.63636C21.7116 7.6372 21.8619 7.60796 22.0023 7.55033C22.1426 7.49269 22.2702 7.40781 22.3775 7.30058C22.4849 7.19336 22.5699 7.06592 22.6277 6.92563C22.6855 6.78534 22.7149 6.63499 22.7142 6.48327C22.7149 6.33155 22.6855 6.1812 22.6277 6.04091C22.5699 5.90062 22.4849 5.77318 22.3775 5.66596C22.2702 5.55873 22.1426 5.47385 22.0023 5.41621C21.8619 5.35858 21.7116 5.32934 21.5598 5.33018ZM14.0431 6.36363C9.84311 6.36363 6.40674 9.8 6.40674 14C6.40674 18.2 9.84311 21.6364 14.0431 21.6364C18.2431 21.6364 21.6795 18.2 21.6795 14C21.6795 9.8 18.2431 6.36363 14.0431 6.36363ZM14.0431 8.90909C16.8724 8.90909 19.134 11.1707 19.134 14C19.134 16.8293 16.8724 19.0909 14.0431 19.0909C11.2138 19.0909 8.9522 16.8293 8.9522 14C8.9522 11.1707 11.2138 8.90909 14.0431 8.90909Z" fill="black"/>
</svg>
