 <svg width="126" height="36" viewBox="0 0 126 36" fill="none" xmlns="http://www.w3.org/2000/svg">
<path fill-rule="evenodd" clip-rule="evenodd" d="M37.1924 2.01958C23.6614 -0.632815 15.6725 -0.712525 0.819237 2.01738C0.34462 2.10461 0 2.51834 0 3.0009V10.5009C0 10.7978 0.131891 11.0793 0.359986 11.2693C0.58808 11.4593 0.888796 11.5381 1.18076 11.4844C1.35377 11.4526 1.5258 11.4212 1.6969 11.3902C1.23641 13.8338 1.13378 16.2605 1.28 18.7898C1.45658 21.844 2.40869 24.8029 4.04645 27.3869C5.68422 29.9709 7.95357 32.0949 10.6402 33.5582C13.3269 35.0216 16.3422 35.776 19.4014 35.7503C22.4607 35.7245 25.4628 34.9195 28.1245 33.4111C30.7862 31.9028 33.0195 29.741 34.6135 27.1297C36.2076 24.5185 37.1098 21.5441 37.2349 18.4873C37.3375 15.9814 37.0082 13.5886 36.6434 11.4501L36.8076 11.4822C37.101 11.5397 37.4047 11.463 37.6355 11.273C37.8663 11.0831 38 10.7998 38 10.5009V3.0009C38 2.52278 37.6616 2.11155 37.1924 2.01958ZM34.5442 11.0536C23.393 9.02258 15.9713 8.95415 3.8141 11.0181C3.26143 13.5239 3.12299 16.016 3.27667 18.6743C3.43362 21.3892 4.27995 24.0193 5.73574 26.3162C7.19152 28.6132 9.20873 30.5011 11.5969 31.8019C13.985 33.1026 16.6653 33.7732 19.3846 33.7503C22.1039 33.7275 24.7725 33.0119 27.1385 31.6711C29.5044 30.3304 31.4895 28.4087 32.9065 26.0876C34.3234 23.7665 35.1254 21.1226 35.2366 18.4055C35.3419 15.8334 34.9527 13.3641 34.5442 11.0536ZM2 9.30374V3.83548C15.798 1.35469 23.4604 1.42509 36 3.82573V9.28986C23.5348 6.93197 15.6743 6.87028 2 9.30374ZM49 23.4726V9.4726C49 7.81574 50.3431 6.4726 52 6.4726H100C101.657 6.4726 103 7.81575 103 9.4726V23.4726C103 25.1295 101.657 26.4726 100 26.4726H52C50.3431 26.4726 49 25.1294 49 23.4726ZM51 23.4726V9.4726C51 8.92031 51.4477 8.4726 52 8.4726H100C100.552 8.4726 101 8.92031 101 9.4726V23.4726C101 24.0249 100.552 24.4726 100 24.4726H52C51.4477 24.4726 51 24.0249 51 23.4726ZM87.4274 11.3855C87.2046 10.989 86.7424 10.7929 86.3024 10.908C85.8625 11.0232 85.5557 11.4207 85.5557 11.8754V21.8754C85.5557 22.4277 86.0034 22.8754 86.5557 22.8754C87.1079 22.8754 87.5557 22.4277 87.5557 21.8754V15.6956L90.4964 20.9279C90.6706 21.2378 90.9963 21.432 91.3518 21.4378C91.7074 21.4436 92.0392 21.2602 92.2234 20.9561L95.5557 15.4559V21.8754C95.5557 22.4277 96.0034 22.8754 96.5557 22.8754C97.1079 22.8754 97.5557 22.4277 97.5557 21.8754V11.8754C97.5557 11.4267 97.2568 11.033 96.8247 10.9123C96.3925 10.7916 95.9329 10.9735 95.7004 11.3573L91.4006 18.4546L87.4274 11.3855ZM57.5557 10.8754C56.4511 10.8754 55.5557 11.7709 55.5557 12.8754V20.8754V20.8766H55.0244C54.4721 20.8766 54.0244 21.3243 54.0244 21.8766C54.0244 22.4289 54.4721 22.8766 55.0244 22.8766H67.9307C68.4829 22.8766 68.9307 22.4289 68.9307 21.8766C68.9307 21.3243 68.4829 20.8766 67.9307 20.8766H67.5557V20.8754V12.8754C67.5557 11.7709 66.6602 10.8754 65.5557 10.8754H57.5557ZM57.5557 12.8754H65.5557V20.8754H57.5557V12.8754ZM70.5557 12.8754C70.5557 11.7709 71.4511 10.8754 72.5557 10.8754H80.5557C81.6602 10.8754 82.5557 11.7709 82.5557 12.8754V20.8754C82.5557 21.98 81.6602 22.8754 80.5557 22.8754H72.5557C71.4511 22.8754 70.5557 21.98 70.5557 20.8754V12.8754ZM80.5557 12.8754H72.5557V20.8754H80.5557V12.8754ZM112.433 14.6418C111.964 14.6641 111.392 14.6913 110.899 14.6913L110.912 14.5528C111.074 12.7394 111.278 10.457 115.665 10.457C118.738 10.457 119.954 12.2164 120.134 13.4726C120.3 14.6393 119.931 16.1132 118.431 17.1132C117.854 17.4977 117.283 17.8015 116.745 18.0884C115.545 18.7269 114.503 19.2818 113.899 20.457H120.056V22.4882H110.696C110.696 21.8216 111.371 20.3288 112.571 19.1288C113.283 18.4169 114.231 17.7578 115.072 17.173C115.648 16.7721 116.174 16.4062 116.54 16.082C117.228 15.4726 117.446 14.9601 117.446 14.1601C117.446 13.1601 116.461 12.3788 115.431 12.3788C114.096 12.4373 113.544 13.2673 113.196 14.6132C113.033 14.6132 112.758 14.6263 112.433 14.6418ZM105.681 23.4726V9.4726C105.681 7.81574 107.024 6.4726 108.681 6.4726H122.681C124.338 6.4726 125.681 7.81574 125.681 9.4726V23.4726C125.681 25.1295 124.338 26.4726 122.681 26.4726H108.681C107.024 26.4726 105.681 25.1294 105.681 23.4726ZM107.681 23.4726V9.4726C107.681 8.92031 108.128 8.4726 108.681 8.4726H122.681C123.233 8.4726 123.681 8.92031 123.681 9.4726V23.4726C123.681 24.0249 123.233 24.4726 122.681 24.4726H108.681C108.128 24.4726 107.681 24.0249 107.681 23.4726ZM21.125 25.0009C21.125 26.1055 20.2296 27.0009 19.125 27.0009C18.0204 27.0009 17.125 26.1055 17.125 25.0009C17.125 23.8963 18.0204 23.0009 19.125 23.0009C20.2296 23.0009 21.125 23.8963 21.125 25.0009ZM23.125 25.0009C23.125 27.2101 21.3341 29.0009 19.125 29.0009C16.9159 29.0009 15.125 27.2101 15.125 25.0009C15.125 22.7918 16.9159 21.0009 19.125 21.0009C21.3341 21.0009 23.125 22.7918 23.125 25.0009ZM14.07 19.8193C14.1939 17.1231 16.4158 15.0009 19.1148 15.0009C21.8097 15.0009 24.0299 17.1169 24.1592 19.8087L24.5966 28.9148C22.5001 30.0644 20.7157 30.5499 19.0146 30.5243C17.3195 30.4989 15.6081 29.9648 13.6523 28.9088L14.07 19.8193ZM19.1148 13.0009C15.347 13.0009 12.245 15.9636 12.0721 19.7275L11.6261 29.435L11.5981 30.0444L12.127 30.3481C14.4743 31.6961 16.678 32.4895 18.9846 32.5241C21.2967 32.5588 23.5951 31.8297 26.1306 30.3437L26.6529 30.0376L26.6238 29.433L26.1569 19.7128C25.9763 15.9549 22.877 13.0009 19.1148 13.0009Z" fill="black"/>
</svg>
