<svg width="25" height="24" viewBox="0 0 25 24" fill="none" xmlns="http://www.w3.org/2000/svg">
<path d="M12.6359 5.9C13.7959 5.9 14.7359 6.84 14.7359 8C14.7359 9.16 13.7959 10.1 12.6359 10.1C11.4759 10.1 10.5359 9.16 10.5359 8C10.5359 6.84 11.4759 5.9 12.6359 5.9ZM12.6359 14.9C15.6059 14.9 18.7359 16.36 18.7359 17V18.1H6.53589V17C6.53589 16.36 9.66589 14.9 12.6359 14.9ZM12.6359 4C10.4259 4 8.63589 5.79 8.63589 8C8.63589 10.21 10.4259 12 12.6359 12C14.8459 12 16.6359 10.21 16.6359 8C16.6359 5.79 14.8459 4 12.6359 4ZM12.6359 13C9.96589 13 4.63589 14.34 4.63589 17V20H20.6359V17C20.6359 14.34 15.3059 13 12.6359 13Z" fill="black"/>
</svg>
