<svg width="25" height="24" viewBox="0 0 25 24" fill="none" xmlns="http://www.w3.org/2000/svg">
<path d="M12.1746 17C13.2746 17 14.1746 16.1 14.1746 15C14.1746 13.9 13.2746 13 12.1746 13C11.0746 13 10.1746 13.9 10.1746 15C10.1746 16.1 11.0746 17 12.1746 17ZM18.1746 8H17.1746V6C17.1746 3.24 14.9346 1 12.1746 1C9.41462 1 7.17462 3.24 7.17462 6H9.07462C9.07462 4.29 10.4646 2.9 12.1746 2.9C13.8846 2.9 15.2746 4.29 15.2746 6V8H6.17462C5.07462 8 4.17462 8.9 4.17462 10V20C4.17462 21.1 5.07462 22 6.17462 22H18.1746C19.2746 22 20.1746 21.1 20.1746 20V10C20.1746 8.9 19.2746 8 18.1746 8ZM18.1746 20H6.17462V10H18.1746V20Z" fill="black"/>
</svg>
