<svg width="28" height="28" viewBox="0 0 28 28" fill="none" xmlns="http://www.w3.org/2000/svg">
<rect width="28" height="28" fill="white"/>
<path d="M27.1285 3.395C27.292 3.55902 27.3838 3.78116 27.3838 4.01275C27.3838 4.24434 27.292 4.46649 27.1285 4.6305L25.3032 6.4575L21.8032 2.9575L23.6285 1.1305C23.7926 0.966464 24.0151 0.874313 24.2471 0.874313C24.4791 0.874313 24.7017 0.966464 24.8657 1.1305L27.1285 3.39325V3.395ZM24.066 7.693L20.566 4.193L8.64324 16.1175C8.54693 16.2138 8.47442 16.3312 8.43149 16.4605L7.02274 20.685C6.99719 20.762 6.99356 20.8446 7.01226 20.9236C7.03096 21.0025 7.07125 21.0747 7.12863 21.1321C7.18601 21.1895 7.25821 21.2298 7.33717 21.2485C7.41612 21.2672 7.49873 21.2635 7.57574 21.238L11.8002 19.8293C11.9293 19.7868 12.0468 19.7149 12.1432 19.6193L24.066 7.69475V7.693Z" fill="black"/>
<path fill-rule="evenodd" clip-rule="evenodd" d="M1.75 23.625C1.75 24.3212 2.02656 24.9889 2.51884 25.4812C3.01113 25.9734 3.67881 26.25 4.375 26.25H23.625C24.3212 26.25 24.9889 25.9734 25.4812 25.4812C25.9734 24.9889 26.25 24.3212 26.25 23.625V13.125C26.25 12.8929 26.1578 12.6704 25.9937 12.5063C25.8296 12.3422 25.6071 12.25 25.375 12.25C25.1429 12.25 24.9204 12.3422 24.7563 12.5063C24.5922 12.6704 24.5 12.8929 24.5 13.125V23.625C24.5 23.8571 24.4078 24.0796 24.2437 24.2437C24.0796 24.4078 23.8571 24.5 23.625 24.5H4.375C4.14294 24.5 3.92038 24.4078 3.75628 24.2437C3.59219 24.0796 3.5 23.8571 3.5 23.625V4.375C3.5 4.14294 3.59219 3.92038 3.75628 3.75628C3.92038 3.59219 4.14294 3.5 4.375 3.5H15.75C15.9821 3.5 16.2046 3.40781 16.3687 3.24372C16.5328 3.07962 16.625 2.85706 16.625 2.625C16.625 2.39294 16.5328 2.17038 16.3687 2.00628C16.2046 1.84219 15.9821 1.75 15.75 1.75H4.375C3.67881 1.75 3.01113 2.02656 2.51884 2.51884C2.02656 3.01113 1.75 3.67881 1.75 4.375V23.625Z" fill="black"/>
</svg>
