<svg width="16" height="10" viewBox="0 0 16 10" fill="none" xmlns="http://www.w3.org/2000/svg">
<path d="M11.2848 5.66667C10.4848 5.66667 9.23814 5.89333 8.28481 6.33333C7.33148 5.88667 6.08481 5.66667 5.28481 5.66667C3.83814 5.66667 0.951477 6.38667 0.951477 7.83333V9.66667H15.6181V7.83333C15.6181 6.38667 12.7315 5.66667 11.2848 5.66667ZM8.61814 8.66667H1.95148V7.83333C1.95148 7.47333 3.65814 6.66667 5.28481 6.66667C6.91148 6.66667 8.61814 7.47333 8.61814 7.83333V8.66667ZM14.6181 8.66667H9.61814V7.83333C9.61814 7.52667 9.48481 7.26 9.27148 7.02C9.85814 6.82 10.5781 6.66667 11.2848 6.66667C12.9115 6.66667 14.6181 7.47333 14.6181 7.83333V8.66667ZM5.28481 5C6.57148 5 7.61814 3.95333 7.61814 2.66667C7.61814 1.38 6.57148 0.333333 5.28481 0.333333C3.99814 0.333333 2.95148 1.38 2.95148 2.66667C2.95148 3.95333 3.99814 5 5.28481 5ZM5.28481 1.33333C6.01814 1.33333 6.61814 1.93333 6.61814 2.66667C6.61814 3.4 6.01814 4 5.28481 4C4.55148 4 3.95148 3.4 3.95148 2.66667C3.95148 1.93333 4.55148 1.33333 5.28481 1.33333ZM11.2848 5C12.5715 5 13.6181 3.95333 13.6181 2.66667C13.6181 1.38 12.5715 0.333333 11.2848 0.333333C9.99814 0.333333 8.95148 1.38 8.95148 2.66667C8.95148 3.95333 9.99814 5 11.2848 5ZM11.2848 1.33333C12.0181 1.33333 12.6181 1.93333 12.6181 2.66667C12.6181 3.4 12.0181 4 11.2848 4C10.5515 4 9.95148 3.4 9.95148 2.66667C9.95148 1.93333 10.5515 1.33333 11.2848 1.33333Z" fill="#464646"/>
</svg>
