<svg width="29" height="28" viewBox="0 0 29 28" fill="none" xmlns="http://www.w3.org/2000/svg">
<path fill-rule="evenodd" clip-rule="evenodd" d="M6.60914 2.32365C6.50577 2.19105 6.3754 2.08192 6.22668 2.00349C6.07795 1.92506 5.91426 1.87911 5.74645 1.8687C5.57863 1.85829 5.41052 1.88365 5.25324 1.9431C5.09597 2.00254 4.95311 2.09472 4.83414 2.21353L3.02367 4.024C2.17816 4.86951 1.86646 6.06778 2.23789 7.1186C3.76974 11.472 6.26213 15.4246 9.53016 18.6832C12.7888 21.9512 16.7414 24.4436 21.0948 25.9755C22.1456 26.345 23.3439 26.0352 24.1894 25.1897L25.9998 23.3792C26.1185 23.2601 26.2106 23.1172 26.2699 22.9598C26.3292 22.8025 26.3544 22.6343 26.3438 22.4665C26.3332 22.2987 26.2871 22.135 26.2085 21.9864C26.1299 21.8377 26.0206 21.7075 25.8878 21.6042L21.8526 18.4648C21.7106 18.3545 21.5455 18.2779 21.3696 18.2407C21.1937 18.2035 21.0116 18.2067 20.8372 18.2502L17.0072 19.2077C16.4956 19.3358 15.9595 19.3292 15.4512 19.1885C14.9429 19.0479 14.4797 18.778 14.1067 18.4051L9.81013 14.1066C9.43726 13.7336 9.16735 13.2704 9.0267 12.7621C8.88605 12.2538 8.87945 11.7178 9.00755 11.2062L9.96505 7.37617C10.0085 7.20172 10.0117 7.01968 9.97456 6.84379C9.93738 6.6679 9.86073 6.50276 9.7504 6.36081L6.60914 2.32365ZM3.51455 0.895809C3.82077 0.589779 4.18857 0.352363 4.59355 0.199314C4.99853 0.0462654 5.43142 -0.0189187 5.8635 0.00808683C6.29559 0.0350923 6.717 0.15367 7.09977 0.355953C7.48253 0.558236 7.81791 0.8396 8.08365 1.18138L11.2212 5.21667C11.7979 5.95579 12.0014 6.92075 11.7736 7.82972L10.8162 11.6616C10.7664 11.8604 10.7689 12.0687 10.8235 12.2663C10.8781 12.4639 10.983 12.6439 11.1279 12.7889L15.4282 17.0855C15.5732 17.2304 15.7532 17.3352 15.9508 17.3898C16.1484 17.4445 16.3567 17.447 16.5555 17.3972L20.3855 16.4397C20.8347 16.3275 21.3036 16.319 21.7566 16.4147C22.2096 16.5104 22.635 16.7079 23.0004 16.9922L27.0357 20.1297C28.486 21.2571 28.6203 23.4016 27.3213 24.6988L25.5108 26.5093C24.2174 27.8027 22.2818 28.372 20.477 27.7374C15.8601 26.1124 11.6683 23.4688 8.21244 20.0028C4.74574 16.5471 2.10153 12.3553 0.475945 7.73826C-0.158653 5.93339 0.410618 3.99787 1.70408 2.70255L3.51455 0.893942V0.895809Z" fill="black"/>
</svg>
