<svg width="19" height="18" viewBox="0 0 19 18" fill="none" xmlns="http://www.w3.org/2000/svg">
<path d="M6.55271 10.2599C6.73227 9.90081 6.8336 9.4955 6.8336 9.06708C6.8336 8.63866 6.73227 8.23336 6.55271 7.87427V10.2599ZM6.55271 10.2599C6.284 10.7971 5.84178 11.2278 5.29768 11.4824C4.75358 11.7369 4.13948 11.8002 3.55487 11.6622C2.97025 11.5242 2.44937 11.1928 2.07661 10.7218C1.70385 10.2508 1.50104 9.66773 1.50104 9.06708C1.50104 8.46643 1.70385 7.88338 2.07661 7.41237C2.44937 6.94136 2.97025 6.61 3.55487 6.47196C4.13948 6.33392 4.75358 6.39729 5.29768 6.6518C5.84178 6.90632 6.284 7.33707 6.55271 7.87427V10.2599ZM6.55271 10.2599L12.4479 13.2073L6.55271 10.2599ZM6.55271 7.87427L12.4479 4.9269L6.55271 7.87427ZM12.4479 4.9269C12.6045 5.24013 12.8213 5.51944 13.0859 5.74888C13.3505 5.97831 13.6577 6.15339 13.99 6.26411C14.3223 6.37484 14.6731 6.41903 15.0225 6.39418C15.3718 6.36933 15.7128 6.27591 16.0261 6.11927C16.3393 5.96263 16.6187 5.74583 16.8481 5.48124C17.0776 5.21666 17.2527 4.90947 17.3634 4.57722C17.4741 4.24498 17.5183 3.89417 17.4935 3.54485C17.4686 3.19552 17.3752 2.85451 17.2185 2.54128C16.9022 1.90869 16.3474 1.42768 15.6764 1.20407C15.0053 0.980459 14.2729 1.03256 13.6403 1.34891C13.0077 1.66527 12.5266 2.21996 12.303 2.89096C12.0794 3.56197 12.1315 4.29432 12.4479 4.9269V4.9269ZM12.4479 13.2073C12.1315 13.84 12.0794 14.5724 12.3031 15.2435C12.5268 15.9146 13.008 16.4693 13.6407 16.7857C14.2735 17.102 15.006 17.1541 15.6771 16.9304C16.3483 16.7067 16.9031 16.2256 17.2194 15.5929C17.5358 14.9602 17.5879 14.2277 17.3642 13.5566C17.1404 12.8855 16.6593 12.3308 16.0265 12.0144C15.7132 11.8578 15.3721 11.7644 15.0227 11.7396C14.6733 11.7147 14.3224 11.759 13.9901 11.8697C13.319 12.0934 12.7642 12.5746 12.4479 13.2073V13.2073Z" stroke="#464646" stroke-width="1.61254" stroke-linecap="round" stroke-linejoin="round"/>
</svg>
