<svg width="32" height="32" viewBox="0 0 32 32" fill="none" xmlns="http://www.w3.org/2000/svg">
<path d="M16 0.5C7.16129 0.5 0 7.4375 0 16C0 24.5625 7.16129 31.5 16 31.5C24.8387 31.5 32 24.5625 32 16C32 7.4375 24.8387 0.5 16 0.5ZM16 28.5C8.88387 28.5 3.09677 22.8938 3.09677 16C3.09677 9.10625 8.88387 3.5 16 3.5C23.1161 3.5 28.9032 9.10625 28.9032 16C28.9032 22.8938 23.1161 28.5 16 28.5ZM10.8387 15C11.9806 15 12.9032 14.1063 12.9032 13C12.9032 11.8937 11.9806 11 10.8387 11C9.69677 11 8.77419 11.8937 8.77419 13C8.77419 14.1063 9.69677 15 10.8387 15ZM21.1613 15C22.3032 15 23.2258 14.1063 23.2258 13C23.2258 11.8937 22.3032 11 21.1613 11C20.0194 11 19.0968 11.8937 19.0968 13C19.0968 14.1063 20.0194 15 21.1613 15ZM21.4194 19.5375C20.0774 21.1 18.0968 22 16 22C13.9032 22 11.9226 21.1063 10.5806 19.5375C10.0323 18.9 9.05161 18.8188 8.4 19.3438C7.74194 19.875 7.65806 20.8187 8.2 21.4562C10.1355 23.7062 12.9806 24.9937 16 24.9937C19.0194 24.9937 21.8645 23.7062 23.8 21.4562C24.3484 20.8187 24.2581 19.875 23.6 19.3438C22.9484 18.8188 21.9677 18.9 21.4194 19.5375V19.5375Z" fill="#F0F0F0"/>
</svg>
