<svg width="140" height="141" viewBox="0 0 140 141" fill="none" xmlns="http://www.w3.org/2000/svg">
<g clip-path="url(#clip0)">
<rect x="0.5" y="1.33487" width="139" height="139" rx="7.5" fill="#F7F7F7" stroke="black"/>
<path d="M47.1307 117.939C47.1307 117.647 47.0164 117.412 46.7879 117.234C46.5636 117.056 46.2589 116.968 45.8738 116.968C45.5141 116.968 45.2243 117.054 45.0042 117.228C44.7884 117.397 44.6805 117.621 44.6805 117.901H42.4588C42.4588 117.393 42.6027 116.938 42.8904 116.536C43.1824 116.134 43.5929 115.821 44.1219 115.596C44.6509 115.368 45.2348 115.254 45.8738 115.254C46.9741 115.254 47.8289 115.484 48.4383 115.946C49.0519 116.407 49.3587 117.052 49.3587 117.882C49.3587 118.305 49.2339 118.692 48.9842 119.043C48.7387 119.39 48.3981 119.665 47.9622 119.868C48.4616 120.046 48.8424 120.317 49.1048 120.681C49.3714 121.041 49.5047 121.489 49.5047 122.027C49.5047 122.856 49.1746 123.516 48.5145 124.007C47.8543 124.494 46.9741 124.737 45.8738 124.737C44.854 124.737 44.0076 124.498 43.3348 124.02C42.6619 123.537 42.3255 122.881 42.3255 122.052H44.5599C44.5599 122.327 44.6826 122.56 44.928 122.75C45.1735 122.936 45.4887 123.03 45.8738 123.03C46.2886 123.03 46.625 122.932 46.8831 122.738C47.1413 122.543 47.2703 122.289 47.2703 121.976C47.2703 121.519 47.1603 121.197 46.9402 121.011C46.7202 120.821 46.3986 120.725 45.9754 120.725H44.7884V119.075H46.0516C46.771 119.054 47.1307 118.675 47.1307 117.939ZM56.5882 122.89H53.535L53.0018 124.616H50.6214L54.011 115.374H56.1058L59.5208 124.616H57.1277L56.5882 122.89ZM54.0682 121.17H56.055L55.0584 117.964L54.0682 121.17ZM69.4925 126.889H67.4929V124.616H62.4593V126.883H60.3963L60.2376 122.903H60.8914C61.2342 122.674 61.5092 122.283 61.7166 121.728C61.9282 121.17 62.0784 120.37 62.1673 119.329L62.4529 115.374H68.7434V122.903H69.7273L69.4925 126.889ZM63.4114 122.903H66.5218V117.094H64.554L64.3826 119.405C64.2556 120.903 63.9319 122.069 63.4114 122.903ZM76.3665 122.89H73.3132L72.78 124.616H70.3997L73.7893 115.374H75.884L79.2991 124.616H76.906L76.3665 122.89ZM73.8464 121.17H75.8333L74.8367 117.964L73.8464 121.17ZM87.8425 115.374V124.616H85.6208V121.201L84.967 121.284L84.1482 121.335C82.904 121.335 81.9519 121.066 81.2917 120.529C80.6316 119.987 80.2973 119.221 80.2888 118.231V115.374H82.5168V118.199C82.5168 118.703 82.6374 119.066 82.8786 119.291C83.1241 119.511 83.5473 119.621 84.1482 119.621L84.3386 119.614C84.8591 119.589 85.2865 119.549 85.6208 119.494V115.374H87.8425ZM95.1735 115.374H97.4016V124.616H95.1735V118.789L91.8537 124.616H89.6257V115.374H91.8537V121.208L95.1735 115.374Z" fill="black"/>
<path d="M86.5 88.3349C89.5376 88.3349 92 85.8724 92 82.8349C92 79.7973 89.5376 77.3349 86.5 77.3349C83.4624 77.3349 81 79.7973 81 82.8349C81 85.8724 83.4624 88.3349 86.5 88.3349Z" fill="black"/>
<path d="M107.887 81.4021C106.188 77.0733 103.255 73.3383 99.4538 70.66C95.6522 67.9817 91.1482 66.4778 86.5 66.3349C81.8518 66.4778 77.3478 67.9817 73.5462 70.66C69.7445 73.3383 66.8124 77.0733 65.1132 81.4021L64.5 82.8349L65.1132 84.2676C66.8124 88.5964 69.7445 92.3315 73.5462 95.0098C77.3478 97.6881 81.8518 99.1919 86.5 99.3349C91.1482 99.1919 95.6522 97.6881 99.4538 95.0098C103.255 92.3315 106.188 88.5964 107.887 84.2676L108.5 82.8349L107.887 81.4021ZM86.5 93.8349C84.3244 93.8349 82.1977 93.1897 80.3887 91.981C78.5798 90.7723 77.1699 89.0544 76.3373 87.0444C75.5048 85.0344 75.2869 82.8227 75.7114 80.6889C76.1358 78.5551 77.1834 76.5951 78.7218 75.0567C80.2602 73.5183 82.2202 72.4707 84.354 72.0462C86.4878 71.6218 88.6995 71.8396 90.7095 72.6722C92.7195 73.5048 94.4375 74.9147 95.6462 76.7236C96.8549 78.5325 97.5 80.6593 97.5 82.8349C97.4964 85.7511 96.3363 88.5469 94.2742 90.609C92.212 92.6711 89.4163 93.8312 86.5 93.8349V93.8349Z" fill="black"/>
<path d="M59 93.8349H45.25V36.0849H53.5V44.3349H86.5V36.0849H94.75V60.8349H100.25V36.0849C100.25 34.6262 99.6705 33.2272 98.6391 32.1958C97.6076 31.1643 96.2087 30.5849 94.75 30.5849H86.5V27.8349C86.5 26.3762 85.9205 24.9772 84.8891 23.9458C83.8576 22.9143 82.4587 22.3349 81 22.3349H59C57.5413 22.3349 56.1424 22.9143 55.1109 23.9458C54.0795 24.9772 53.5 26.3762 53.5 27.8349V30.5849H45.25C43.7913 30.5849 42.3924 31.1643 41.3609 32.1958C40.3295 33.2272 39.75 34.6262 39.75 36.0849V93.8349C39.75 95.2936 40.3295 96.6925 41.3609 97.724C42.3924 98.7554 43.7913 99.3349 45.25 99.3349H59V93.8349ZM59 27.8349H81V38.8349H59V27.8349Z" fill="black"/>
</g>
<defs>
<clipPath id="clip0">
<rect width="140" height="140" fill="white" transform="translate(0 0.834869)"/>
</clipPath>
</defs>
</svg>
