<svg width="29" height="26" viewBox="0 0 29 26" fill="none" xmlns="http://www.w3.org/2000/svg">
<path d="M26.2118 0.799267C25.866 0.824425 25.5266 0.90555 25.2068 1.03948H25.2025C24.8955 1.1612 23.436 1.77518 21.217 2.70586L13.2653 6.05478C7.55954 8.45687 1.95071 10.8223 1.95071 10.8223L2.0175 10.7965C2.0175 10.7965 1.63079 10.9236 1.22686 11.2004C0.977305 11.3592 0.762566 11.567 0.595633 11.8112C0.397434 12.102 0.238013 12.5469 0.297257 13.0068C0.394202 13.7846 0.898318 14.251 1.26025 14.5084C1.62649 14.7691 1.97549 14.8908 1.97549 14.8908H1.98411L7.24393 16.6628C7.47983 17.42 8.84676 21.914 9.1753 22.9491C9.36919 23.5674 9.55769 23.9541 9.79359 24.2493C9.90777 24.4001 10.0413 24.5261 10.2018 24.6274C10.2853 24.6759 10.3742 24.7142 10.4668 24.7415L10.413 24.7286C10.4291 24.7329 10.442 24.7458 10.4539 24.7502C10.497 24.762 10.5261 24.7663 10.581 24.7749C11.4137 25.027 12.0826 24.5099 12.0826 24.5099L12.1203 24.4798L15.2258 21.6522L20.4307 25.6453L20.5491 25.6959C21.6339 26.172 22.7326 25.907 23.3132 25.4395C23.8981 24.9688 24.1253 24.3667 24.1253 24.3667L24.163 24.2697L28.1852 3.66454C28.2994 3.15612 28.3285 2.68001 28.2024 2.2179C28.0725 1.75022 27.7724 1.34799 27.3612 1.0901C27.0159 0.880179 26.6154 0.778853 26.2118 0.799267V0.799267ZM26.103 3.00747C26.0987 3.07533 26.1116 3.06779 26.0815 3.19813V3.20997L22.097 23.6008C22.0798 23.6299 22.0507 23.6935 21.971 23.757C21.887 23.8238 21.8202 23.8658 21.4701 23.7268L15.104 18.8462L11.2585 22.3513L12.0664 17.1917L22.4676 7.49711C22.8963 7.09856 22.753 7.01454 22.753 7.01454C22.7832 6.52551 22.1057 6.87128 22.1057 6.87128L8.99002 14.9964L8.98571 14.9748L2.69935 12.8582V12.8539L2.68319 12.8507C2.69421 12.847 2.705 12.8427 2.7155 12.8377L2.74997 12.8205L2.78337 12.8086C2.78337 12.8086 8.3965 10.4432 14.1023 8.04108C16.9589 6.83789 19.8371 5.62607 22.0507 4.69108C24.2643 3.76149 25.9005 3.07964 25.9932 3.04301C26.0815 3.00854 26.0395 3.00854 26.103 3.00854V3.00747Z" fill="black"/>
</svg>
