<svg width="16" height="16" viewBox="0 0 16 16" fill="none" xmlns="http://www.w3.org/2000/svg">
<circle cx="8.2392" cy="11.4488" r="1.5" fill="#C4C4C4" stroke="black"/>
<path d="M5.7392 15.6219C5.7392 15.2936 5.80386 14.9685 5.9295 14.6652C6.05513 14.3619 6.23928 14.0863 6.47143 13.8541C6.70358 13.622 6.97917 13.4378 7.28249 13.3122C7.5858 13.1866 7.91089 13.1219 8.2392 13.1219C8.5675 13.1219 8.89259 13.1866 9.19591 13.3122C9.49922 13.4378 9.77482 13.622 10.007 13.8541C10.2391 14.0863 10.4233 14.3619 10.5489 14.6652C10.6745 14.9685 10.7392 15.2936 10.7392 15.6219" stroke="black"/>
<circle cx="12.8302" cy="7.09121" r="1.17281" fill="#C4C4C4" stroke="black"/>
<path d="M10.7392 10.5816C10.7392 10.307 10.7933 10.0351 10.8983 9.7814C11.0034 9.52771 11.1574 9.2972 11.3516 9.10303C11.5458 8.90886 11.7763 8.75484 12.03 8.64975C12.2837 8.54467 12.5556 8.49058 12.8302 8.49058C13.1048 8.49058 13.3767 8.54467 13.6304 8.64975C13.8841 8.75484 14.1146 8.90886 14.3088 9.10303C14.5029 9.2972 14.657 9.52771 14.762 9.7814C14.8671 10.0351 14.9212 10.307 14.9212 10.5816" stroke="black"/>
<circle cx="3.01934" cy="9.77587" r="1.27587" fill="#C4C4C4" stroke="black"/>
<path d="M0.799518 13.4813C0.799518 13.1898 0.856936 12.9011 0.968494 12.6318C1.08005 12.3625 1.24356 12.1178 1.44969 11.9116C1.65583 11.7055 1.90054 11.542 2.16986 11.4304C2.43919 11.3189 2.72784 11.2615 3.01936 11.2615C3.31087 11.2615 3.59953 11.3189 3.86885 11.4304C4.13818 11.542 4.38289 11.7055 4.58902 11.9116C4.79515 12.1178 4.95866 12.3625 5.07022 12.6318C5.18178 12.9011 5.2392 13.1898 5.2392 13.4813" stroke="black"/>
<circle cx="11.3964" cy="3.6735" r="1.04492" fill="#C4C4C4" stroke="black"/>
<circle cx="8.5588" cy="6.8988" r="1.18038" fill="#C4C4C4" stroke="black"/>
<path d="M5.73919 5.91973C5.73919 6.5112 5.25971 6.99068 4.66824 6.99068C4.07677 6.99068 3.59729 6.5112 3.59729 5.91973C3.59729 5.32826 4.07677 4.84878 4.66824 4.84878C5.25971 4.84878 5.73919 5.32826 5.73919 5.91973Z" fill="#C4C4C4" stroke="black"/>
<circle cx="7.41958" cy="2.66839" r="1.18038" fill="#C4C4C4" stroke="black"/>
</svg>
