<svg width="28" height="29" viewBox="0 0 28 29" fill="none" xmlns="http://www.w3.org/2000/svg">
<path d="M13.2894 0.800756C11.0064 0.827884 6.09828 1.19718 3.35305 3.67636C1.31102 5.66811 0.598048 8.61284 0.514482 12.2542C0.44514 15.8824 0.361575 22.696 7.0335 24.5512V27.3769C7.0335 27.3769 6.99172 28.5075 7.75093 28.7395C8.68615 29.0309 9.21866 28.161 10.1077 27.2264L11.7656 25.3808C16.3306 25.7545 19.8271 24.8934 20.2298 24.7656C21.1561 24.4742 26.3737 23.8178 27.2262 17.0034C28.101 9.96576 26.8004 5.53159 24.4525 3.52584H24.4383C23.7298 2.88351 20.8823 0.841011 14.5206 0.818258C14.5206 0.818258 14.0486 0.787629 13.2894 0.800756ZM13.3676 2.77937C14.0157 2.775 14.4095 2.80213 14.4095 2.80213C19.7942 2.81613 22.3643 4.41145 22.9706 4.94877C24.9477 6.61672 25.9665 10.6142 25.2206 16.4897C24.5121 22.1866 20.2805 22.5472 19.4973 22.7931C19.1639 22.8981 16.0844 23.6454 12.2048 23.3995C12.2048 23.3995 9.31556 26.8317 8.41234 27.7156C8.26921 27.8705 8.10208 27.916 7.9954 27.8932C7.84249 27.8565 7.79626 27.6701 7.80515 27.4145L7.83271 22.7248C2.17424 21.1846 2.50762 15.3731 2.56807 12.3373C2.63741 9.30155 3.21615 6.818 4.93902 5.13604C7.25842 3.07166 11.426 2.79338 13.3658 2.77937H13.3676ZM13.7943 5.81425C13.7478 5.81379 13.7016 5.8224 13.6584 5.8396C13.6152 5.8568 13.5759 5.88224 13.5428 5.91445C13.5096 5.94667 13.4833 5.98502 13.4653 6.0273C13.4473 6.06958 13.438 6.11495 13.4378 6.16079C13.4378 6.35682 13.5996 6.51171 13.7943 6.51171C14.6758 6.49521 15.5518 6.65065 16.3719 6.96906C17.1921 7.28748 17.94 7.76257 18.5727 8.36694C19.8644 9.60172 20.4938 11.2609 20.5178 13.4303C20.5178 13.622 20.6752 13.7812 20.8743 13.7812V13.7672C20.9682 13.7675 21.0583 13.7312 21.1251 13.6663C21.1919 13.6013 21.2299 13.5131 21.2308 13.4207C21.274 12.3996 21.1057 11.3805 20.7364 10.4253C20.367 9.4702 19.8042 8.59898 19.0821 7.86463C17.6748 6.51083 15.8915 5.81425 13.7943 5.81425ZM9.10843 6.61672C8.85679 6.58053 8.60016 6.63025 8.38123 6.75762H8.36256C7.85428 7.0509 7.39641 7.42158 7.00594 7.85588C6.68146 8.22517 6.50544 8.59884 6.45921 8.95851C6.43165 9.17291 6.45032 9.38731 6.51522 9.59209L6.53833 9.60609C6.90371 10.6632 7.3811 11.6801 7.96428 12.6375C8.71551 13.9825 9.64 15.2264 10.7148 16.3383L10.7468 16.3838L10.7975 16.4206L10.8295 16.4573L10.8669 16.4888C12.0005 17.55 13.2672 18.4643 14.6362 19.2095C16.2008 20.0479 17.1503 20.4443 17.7201 20.6088V20.6176C17.8873 20.6675 18.0393 20.6902 18.1922 20.6902C18.6779 20.6552 19.1376 20.4611 19.4981 20.1389C19.9373 19.7544 20.3097 19.3019 20.6005 18.7991V18.7903C20.8734 18.2845 20.781 17.8059 20.3871 17.4821C19.5984 16.8034 18.7456 16.2006 17.8402 15.682C17.2339 15.3582 16.6178 15.5542 16.368 15.8824L15.8355 16.5431C15.5625 16.8712 15.0665 16.8257 15.0665 16.8257L15.0523 16.8345C11.3531 15.9042 10.3664 12.2174 10.3664 12.2174C10.3664 12.2174 10.3201 11.716 10.6624 11.4604L11.3291 10.9319C11.6483 10.6763 11.8705 10.0708 11.5283 9.47307C11.005 8.5806 10.394 7.74084 9.70405 6.96589C9.55322 6.7832 9.34161 6.65889 9.10665 6.61497L9.10843 6.61672ZM14.4095 7.65635C13.9375 7.65635 13.9375 8.35819 14.414 8.35819C15.001 8.36756 15.5803 8.49071 16.1189 8.7206C16.6575 8.95049 17.1449 9.28261 17.553 9.69798C17.9254 10.1023 18.2115 10.576 18.3944 11.0912C18.5773 11.6063 18.6534 12.1524 18.618 12.697C18.6197 12.7891 18.6579 12.877 18.7245 12.9418C18.7911 13.0066 18.8809 13.0431 18.9745 13.0435L18.9887 13.0619C19.0831 13.0612 19.1733 13.024 19.2401 12.9584C19.3068 12.8927 19.3445 12.8038 19.3452 12.711C19.3772 11.3204 18.9381 10.1539 18.0766 9.21929C17.2108 8.28468 16.0026 7.76049 14.4602 7.65635H14.4095ZM14.9936 9.54308C14.5073 9.52908 14.4886 10.2449 14.9705 10.2589C16.1422 10.3184 16.7111 10.9013 16.7858 12.1001C16.7874 12.1912 16.8252 12.2779 16.891 12.3419C16.9568 12.4058 17.0454 12.4419 17.1379 12.4423H17.1521C17.1996 12.4403 17.2463 12.429 17.2893 12.4091C17.3324 12.3891 17.3709 12.3609 17.4028 12.3261C17.4347 12.2913 17.4592 12.2507 17.4749 12.2065C17.4906 12.1622 17.4972 12.1154 17.4943 12.0686C17.4108 10.5057 16.5449 9.62534 15.0078 9.54396L14.9936 9.54308Z" fill="black"/>
</svg>
