<svg width="29" height="29" viewBox="0 0 29 29" fill="none" xmlns="http://www.w3.org/2000/svg">
<path fill-rule="evenodd" clip-rule="evenodd" d="M24.6366 4.86625C23.3447 3.57224 21.8077 2.54625 20.1147 1.8477C18.4217 1.14916 16.6062 0.791938 14.7736 0.79674C7.09107 0.79674 0.831907 7.02179 0.831907 14.6695C0.826084 17.1047 1.46769 19.498 2.69157 21.6065L0.71524 28.7967L8.10724 26.8641C10.1512 27.9726 12.4413 28.5543 14.7689 28.5563H14.7747C22.4584 28.5563 28.7106 22.3324 28.7152 14.6788C28.7152 10.9728 27.2662 7.48867 24.6366 4.86509V4.86625ZM14.7736 26.2114H14.7689C12.6941 26.2114 10.6573 25.6567 8.87141 24.6052L8.44791 24.3555L4.05891 25.4995L5.23024 21.243L4.95724 20.8075C3.79594 18.9692 3.18113 16.8411 3.18391 14.6695C3.18391 8.31442 8.38374 3.14275 14.7782 3.14275C16.3001 3.13896 17.8075 3.43572 19.2133 4.01584C20.6192 4.59596 21.8954 5.44792 22.9682 6.52239C24.0463 7.59171 24.9009 8.86307 25.4826 10.263C26.0643 11.663 26.3617 13.1638 26.3574 14.6788C26.3574 21.0398 21.1576 26.2114 14.7724 26.2114H14.7736ZM21.1261 17.573C20.7796 17.4011 19.0657 16.5626 18.7472 16.4488C18.4287 16.3303 18.1954 16.2757 17.9632 16.6207C17.7299 16.9691 17.0649 17.7507 16.8607 17.9818C16.6601 18.2083 16.4547 18.2408 16.1082 18.0678C15.7582 17.8959 14.6371 17.5277 13.3059 16.3443C12.2711 15.4268 11.5699 14.2886 11.3692 13.9437C11.1639 13.5953 11.3459 13.4094 11.5197 13.2352C11.6784 13.0819 11.8697 12.8322 12.0436 12.6278C12.2162 12.4292 12.2769 12.284 12.3936 12.0518C12.5079 11.8207 12.4496 11.6162 12.3621 11.4444C12.2757 11.2725 11.5792 9.56175 11.2876 8.86724C11.0041 8.19131 10.7171 8.28654 10.5036 8.27377C10.3029 8.26448 10.0707 8.26448 9.83857 8.26448C9.60524 8.26448 9.22724 8.35042 8.90757 8.7C8.58907 9.04493 7.69074 9.88462 7.69074 11.5895C7.69074 13.2956 8.93907 14.946 9.11407 15.1782C9.28674 15.4047 11.5699 18.9063 15.0641 20.4091C15.8947 20.7668 16.5411 20.9805 17.0474 21.1396C17.8816 21.4021 18.6422 21.3661 19.2442 21.279C19.9139 21.1803 21.3034 20.4405 21.5951 19.6287C21.8832 18.8215 21.8832 18.127 21.7957 17.9818C21.7094 17.8367 21.4772 17.7495 21.1261 17.573V17.573Z" fill="black"/>
</svg>
