<svg width="17" height="17" viewBox="0 0 17 17" fill="none" xmlns="http://www.w3.org/2000/svg">
<path d="M11.9431 10.8333H11.219L10.9623 10.5858C11.8606 9.54083 12.4015 8.18417 12.4015 6.70833C12.4015 3.4175 9.73397 0.75 6.44314 0.75C3.1523 0.75 0.484802 3.4175 0.484802 6.70833C0.484802 9.99917 3.1523 12.6667 6.44314 12.6667C7.91897 12.6667 9.27564 12.1258 10.3206 11.2275L10.5681 11.4842V12.2083L15.1515 16.7825L16.5173 15.4167L11.9431 10.8333ZM6.44314 10.8333C4.16064 10.8333 2.31814 8.99083 2.31814 6.70833C2.31814 4.42583 4.16064 2.58333 6.44314 2.58333C8.72564 2.58333 10.5681 4.42583 10.5681 6.70833C10.5681 8.99083 8.72564 10.8333 6.44314 10.8333Z" fill="#464646"/>
</svg>
